<?xml version="1.0" encoding="UTF-8" standalone="no"?>
<!DOCTYPE svg PUBLIC "-//W3C//DTD SVG 1.1//EN" "http://www.w3.org/Graphics/SVG/1.1/DTD/svg11.dtd">
<svg width="100%" height="100%" viewBox="0 0 626 310" version="1.1" xmlns="http://www.w3.org/2000/svg" xmlns:xlink="http://www.w3.org/1999/xlink" xml:space="preserve" xmlns:serif="http://www.serif.com/" style="fill-rule:evenodd;clip-rule:evenodd;stroke-linecap:square;stroke-linejoin:round;stroke-miterlimit:1.5;">
    <g transform="matrix(1,0,0,1,-651.985,0)">
        <g id="Artboard1" transform="matrix(1.02058,0,0,1.01737,226.935,-303.347)">
            <rect x="416.481" y="298.168" width="612.576" height="304.286" style="fill:none;"/>
            <g transform="matrix(0.97984,0,-0.48992,0.49963,152.354,194.119)">
                <rect x="551.497" y="259.22" width="53.083" height="53.083" style="fill:rgb(127,191,191);stroke:rgb(6,0,0);stroke-width:1.98px;"/>
            </g>
            <g transform="matrix(0.97984,0,-0.48992,0.49963,204.366,194.119)">
                <rect x="551.497" y="259.22" width="53.083" height="53.083" style="fill:rgb(127,191,191);stroke:rgb(6,0,0);stroke-width:1.98px;"/>
            </g>
            <g transform="matrix(-2.3252e-15,0.982928,-0.48992,0.49963,848.312,-243.609)">
                <rect x="551.497" y="259.22" width="53.083" height="53.083" style="fill:rgb(207,64,112);stroke:rgb(6,0,0);stroke-width:0.89px;"/>
            </g>
            <g transform="matrix(-2.3252e-15,0.982928,-0.48992,0.49963,848.312,-295.786)">
                <rect x="551.497" y="259.22" width="53.083" height="53.083" style="fill:rgb(255,127,0);stroke:rgb(6,0,0);stroke-width:0.89px;"/>
            </g>
            <g transform="matrix(0.97984,0,-0.48992,0.49963,255.922,194.119)">
                <rect x="551.497" y="259.22" width="53.083" height="53.083" style="fill:rgb(127,191,191);stroke:rgb(6,0,0);stroke-width:1.98px;"/>
            </g>
            <g transform="matrix(-2.3252e-15,0.982928,-0.48992,0.49963,848.312,-347.962)">
                <rect x="551.497" y="259.22" width="53.083" height="53.083" style="fill:rgb(64,159,159);stroke:rgb(6,0,0);stroke-width:0.89px;"/>
            </g>
            <g transform="matrix(0.97984,0,-0.48992,0.49963,126.347,220.207)">
                <rect x="551.497" y="259.22" width="53.083" height="53.083" style="fill:rgb(127,191,191);stroke:rgb(6,0,0);stroke-width:1.98px;"/>
            </g>
            <g transform="matrix(0.97984,0,-0.48992,0.49963,178.36,220.207)">
                <rect x="551.497" y="259.22" width="53.083" height="53.083" style="fill:rgb(127,191,191);stroke:rgb(6,0,0);stroke-width:1.98px;"/>
            </g>
            <g transform="matrix(-2.3252e-15,0.982928,-0.48992,0.49963,822.306,-217.521)">
                <rect x="551.497" y="259.22" width="53.083" height="53.083" style="fill:rgb(207,64,112);stroke:rgb(6,0,0);stroke-width:0.89px;"/>
            </g>
            <g transform="matrix(-2.3252e-15,0.982928,-0.48992,0.49963,822.306,-269.698)">
                <rect x="551.497" y="259.22" width="53.083" height="53.083" style="fill:rgb(255,127,0);stroke:rgb(6,0,0);stroke-width:0.89px;"/>
            </g>
            <g transform="matrix(0.97984,0,-0.48992,0.49963,229.915,220.207)">
                <rect x="551.497" y="259.22" width="53.083" height="53.083" style="fill:rgb(127,191,191);stroke:rgb(6,0,0);stroke-width:1.98px;"/>
            </g>
            <g transform="matrix(-2.3252e-15,0.982928,-0.48992,0.49963,822.306,-321.874)">
                <rect x="551.497" y="259.22" width="53.083" height="53.083" style="fill:rgb(64,159,159);stroke:rgb(6,0,0);stroke-width:0.89px;"/>
            </g>
            <g transform="matrix(0.97984,0,0,0.982928,-52.6622,251.889)">
                <rect x="551.497" y="259.22" width="53.083" height="53.083" style="fill:rgb(239,191,207);stroke:rgb(6,0,0);stroke-width:1px;"/>
            </g>
            <g transform="matrix(0.97984,0,0,0.982928,-0.649771,251.889)">
                <rect x="551.497" y="259.22" width="53.083" height="53.083" style="fill:rgb(239,191,207);stroke:rgb(6,0,0);stroke-width:1px;"/>
            </g>
            <g transform="matrix(0.97984,0,0,0.982928,-52.6622,199.713)">
                <rect x="551.497" y="259.22" width="53.083" height="53.083" style="fill:rgb(255,189,123);stroke:rgb(6,0,0);stroke-width:1px;"/>
            </g>
            <g transform="matrix(0.97984,0,0,0.982928,-0.649771,199.713)">
                <rect x="551.497" y="259.22" width="53.083" height="53.083" style="fill:rgb(255,189,123);stroke:rgb(6,0,0);stroke-width:1px;"/>
            </g>
            <g transform="matrix(0.97984,0,0,0.982928,-52.6622,147.537)">
                <rect x="551.497" y="259.22" width="53.083" height="53.083" style="fill:rgb(191,223,223);stroke:rgb(6,0,0);stroke-width:1px;"/>
            </g>
            <g transform="matrix(0.97984,0,-0.48992,0.49963,100.341,246.296)">
                <rect x="551.497" y="259.22" width="53.083" height="53.083" style="fill:rgb(127,191,191);stroke:rgb(6,0,0);stroke-width:1.98px;"/>
            </g>
            <g transform="matrix(0.97984,0,0,0.982928,-0.649771,147.537)">
                <rect x="551.497" y="259.22" width="53.083" height="53.083" style="fill:rgb(191,223,223);stroke:rgb(6,0,0);stroke-width:1px;"/>
            </g>
            <g transform="matrix(0.97984,0,-0.48992,0.49963,152.354,246.296)">
                <rect x="551.497" y="259.22" width="53.083" height="53.083" style="fill:rgb(127,191,191);stroke:rgb(6,0,0);stroke-width:1.98px;"/>
            </g>
            <g transform="matrix(0.97984,0,0,0.982928,50.9058,251.889)">
                <rect x="551.497" y="259.22" width="53.083" height="53.083" style="fill:rgb(239,191,207);stroke:rgb(6,0,0);stroke-width:1px;"/>
            </g>
            <g transform="matrix(-2.3252e-15,0.982928,-0.48992,0.49963,796.3,-191.433)">
                <rect x="551.497" y="259.22" width="53.083" height="53.083" style="fill:rgb(207,64,112);stroke:rgb(6,0,0);stroke-width:0.89px;"/>
            </g>
            <g transform="matrix(0.97984,0,0,0.982928,50.9058,199.713)">
                <rect x="551.497" y="259.22" width="53.083" height="53.083" style="fill:rgb(255,189,123);stroke:rgb(6,0,0);stroke-width:1px;"/>
            </g>
            <g transform="matrix(-2.3252e-15,0.982928,-0.48992,0.49963,796.3,-243.609)">
                <rect x="551.497" y="259.22" width="53.083" height="53.083" style="fill:rgb(255,127,0);stroke:rgb(6,0,0);stroke-width:0.89px;"/>
            </g>
            <g transform="matrix(0.97984,0,0,0.982928,50.9058,147.537)">
                <rect x="551.497" y="259.22" width="53.083" height="53.083" style="fill:rgb(191,223,223);stroke:rgb(6,0,0);stroke-width:1px;"/>
            </g>
            <g transform="matrix(0.97984,0,-0.48992,0.49963,203.909,246.296)">
                <rect x="551.497" y="259.22" width="53.083" height="53.083" style="fill:rgb(127,191,191);stroke:rgb(6,0,0);stroke-width:1.98px;"/>
            </g>
            <g transform="matrix(-2.3252e-15,0.982928,-0.48992,0.49963,796.3,-295.786)">
                <rect x="551.497" y="259.22" width="53.083" height="53.083" style="fill:rgb(64,159,159);stroke:rgb(6,0,0);stroke-width:0.89px;"/>
            </g>
            <g transform="matrix(0.97984,0,0,0.982928,257.48,88.7845)">
                <g transform="matrix(24,0,0,24,413.097,486.617)">
                    <path d="M0.3,0.012C0.208,0.012 0.139,-0.019 0.095,-0.081C0.049,-0.143 0.027,-0.232 0.027,-0.349C0.027,-0.466 0.049,-0.555 0.095,-0.617C0.139,-0.679 0.208,-0.71 0.3,-0.71C0.392,-0.71 0.46,-0.679 0.506,-0.617C0.551,-0.555 0.573,-0.466 0.573,-0.349C0.573,-0.232 0.551,-0.143 0.506,-0.081C0.46,-0.019 0.392,0.012 0.3,0.012ZM0.3,-0.106C0.343,-0.106 0.373,-0.121 0.392,-0.152C0.411,-0.182 0.42,-0.226 0.42,-0.284L0.42,-0.414C0.42,-0.472 0.411,-0.516 0.392,-0.547C0.373,-0.577 0.343,-0.592 0.3,-0.592C0.257,-0.592 0.227,-0.577 0.208,-0.547C0.189,-0.516 0.18,-0.472 0.18,-0.414L0.18,-0.284C0.18,-0.226 0.189,-0.182 0.208,-0.152C0.227,-0.121 0.257,-0.106 0.3,-0.106ZM0.3,-0.29C0.259,-0.29 0.238,-0.306 0.238,-0.338L0.238,-0.36C0.238,-0.392 0.259,-0.408 0.3,-0.408C0.341,-0.408 0.362,-0.392 0.362,-0.36L0.362,-0.338C0.362,-0.306 0.341,-0.29 0.3,-0.29Z" style="fill-rule:nonzero;"/>
                </g>
            </g>
            <g transform="matrix(0.97984,0,0,0.982928,258.412,67.2667)">
                <g transform="matrix(24,0,0,24,438.506,482.679)">
                    <path d="M0.094,-0L0.094,-0.121L0.282,-0.121L0.282,-0.589L0.273,-0.589L0.131,-0.403L0.035,-0.478L0.202,-0.698L0.432,-0.698L0.432,-0.121L0.58,-0.121L0.58,-0L0.094,-0Z" style="fill-rule:nonzero;"/>
                </g>
            </g>
            <g transform="matrix(0.97984,0,0,0.982928,257.263,38.1678)">
                <g transform="matrix(24,0,0,24,466.485,486.296)">
                    <path d="M0.555,-0L0.053,-0L0.053,-0.137L0.273,-0.32C0.312,-0.353 0.339,-0.382 0.356,-0.406C0.372,-0.43 0.38,-0.455 0.38,-0.481L0.38,-0.491C0.38,-0.52 0.371,-0.542 0.354,-0.557C0.337,-0.572 0.313,-0.58 0.284,-0.58C0.226,-0.58 0.188,-0.547 0.169,-0.482L0.038,-0.532C0.055,-0.585 0.085,-0.627 0.129,-0.661C0.173,-0.693 0.23,-0.71 0.299,-0.71C0.349,-0.71 0.392,-0.701 0.429,-0.683C0.465,-0.665 0.493,-0.64 0.512,-0.609C0.531,-0.577 0.54,-0.541 0.54,-0.5C0.54,-0.463 0.532,-0.43 0.516,-0.399C0.5,-0.368 0.479,-0.34 0.453,-0.315C0.427,-0.289 0.393,-0.26 0.352,-0.229L0.219,-0.126L0.555,-0.126L0.555,-0Z" style="fill-rule:nonzero;"/>
                </g>
            </g>
            <g transform="matrix(0.97984,0,0,0.982928,101.041,76.1857)">
                <g transform="matrix(24,0,0,24,401.457,517.241)">
                    <path d="M0.126,-0.401L0.034,-0.401L0.034,-0.516L0.126,-0.516L0.126,-0.591C0.126,-0.636 0.139,-0.673 0.166,-0.7C0.193,-0.727 0.232,-0.74 0.284,-0.74L0.419,-0.74L0.419,-0.625L0.308,-0.625C0.299,-0.625 0.291,-0.622 0.284,-0.615C0.277,-0.608 0.274,-0.6 0.274,-0.591L0.274,-0.516L0.389,-0.516L0.389,-0.401L0.274,-0.401L0.274,-0L0.126,-0L0.126,-0.401Z" style="fill-rule:nonzero;"/>
                </g>
                <g transform="matrix(24,0,0,24,412.257,517.241)">
                    <path d="M0.3,0.012C0.219,0.012 0.156,-0.012 0.11,-0.061C0.064,-0.109 0.041,-0.175 0.041,-0.258C0.041,-0.341 0.064,-0.407 0.11,-0.456C0.156,-0.504 0.219,-0.528 0.3,-0.528C0.381,-0.528 0.444,-0.504 0.49,-0.456C0.536,-0.407 0.559,-0.341 0.559,-0.258C0.559,-0.175 0.536,-0.109 0.49,-0.061C0.444,-0.012 0.381,0.012 0.3,0.012ZM0.3,-0.098C0.333,-0.098 0.359,-0.108 0.378,-0.129C0.397,-0.15 0.406,-0.179 0.406,-0.217L0.406,-0.299C0.406,-0.337 0.397,-0.366 0.378,-0.387C0.359,-0.408 0.333,-0.418 0.3,-0.418C0.267,-0.418 0.241,-0.408 0.222,-0.387C0.203,-0.366 0.194,-0.337 0.194,-0.299L0.194,-0.217C0.194,-0.179 0.203,-0.15 0.222,-0.129C0.241,-0.108 0.267,-0.098 0.3,-0.098Z" style="fill-rule:nonzero;"/>
                </g>
                <g transform="matrix(24,0,0,24,426.657,517.241)">
                    <path d="M0.3,0.012C0.219,0.012 0.156,-0.012 0.11,-0.061C0.064,-0.109 0.041,-0.175 0.041,-0.258C0.041,-0.341 0.064,-0.407 0.11,-0.456C0.156,-0.504 0.219,-0.528 0.3,-0.528C0.381,-0.528 0.444,-0.504 0.49,-0.456C0.536,-0.407 0.559,-0.341 0.559,-0.258C0.559,-0.175 0.536,-0.109 0.49,-0.061C0.444,-0.012 0.381,0.012 0.3,0.012ZM0.3,-0.098C0.333,-0.098 0.359,-0.108 0.378,-0.129C0.397,-0.15 0.406,-0.179 0.406,-0.217L0.406,-0.299C0.406,-0.337 0.397,-0.366 0.378,-0.387C0.359,-0.408 0.333,-0.418 0.3,-0.418C0.267,-0.418 0.241,-0.408 0.222,-0.387C0.203,-0.366 0.194,-0.337 0.194,-0.299L0.194,-0.217C0.194,-0.179 0.203,-0.15 0.222,-0.129C0.241,-0.108 0.267,-0.098 0.3,-0.098Z" style="fill-rule:nonzero;"/>
                </g>
            </g>
            <g transform="matrix(0.97984,0,0,0.982928,114.141,73.4212)">
                <g transform="matrix(24,0,0,24,440.858,520.053)">
                    <path d="M0.059,-0.74L0.207,-0.74L0.207,-0.422L0.214,-0.422C0.228,-0.455 0.247,-0.481 0.272,-0.5C0.296,-0.519 0.328,-0.528 0.367,-0.528C0.426,-0.528 0.474,-0.506 0.509,-0.461C0.544,-0.416 0.561,-0.348 0.561,-0.258C0.561,-0.168 0.544,-0.1 0.509,-0.056C0.474,-0.011 0.426,0.012 0.367,0.012C0.328,0.012 0.296,0.003 0.272,-0.016C0.247,-0.035 0.228,-0.061 0.214,-0.094L0.207,-0.094L0.207,-0L0.059,-0L0.059,-0.74ZM0.303,-0.103C0.336,-0.103 0.361,-0.113 0.38,-0.134C0.398,-0.154 0.407,-0.182 0.407,-0.218L0.407,-0.298C0.407,-0.334 0.398,-0.362 0.38,-0.383C0.361,-0.403 0.336,-0.413 0.303,-0.413C0.275,-0.413 0.252,-0.406 0.234,-0.393C0.216,-0.38 0.207,-0.36 0.207,-0.334L0.207,-0.182C0.207,-0.156 0.216,-0.136 0.234,-0.123C0.252,-0.11 0.275,-0.103 0.303,-0.103Z" style="fill-rule:nonzero;"/>
                </g>
                <g transform="matrix(24,0,0,24,455.258,520.053)">
                    <path d="M0.487,-0C0.456,-0 0.432,-0.008 0.413,-0.024C0.394,-0.04 0.383,-0.062 0.38,-0.091L0.375,-0.091C0.366,-0.058 0.348,-0.032 0.32,-0.015C0.292,0.003 0.258,0.012 0.218,0.012C0.167,0.012 0.127,-0.002 0.097,-0.029C0.067,-0.056 0.052,-0.094 0.052,-0.142C0.052,-0.248 0.129,-0.301 0.284,-0.301L0.367,-0.301L0.367,-0.327C0.367,-0.358 0.36,-0.382 0.345,-0.397C0.33,-0.412 0.306,-0.42 0.273,-0.42C0.244,-0.42 0.219,-0.414 0.2,-0.403C0.18,-0.392 0.162,-0.376 0.147,-0.355L0.066,-0.427C0.084,-0.458 0.112,-0.482 0.15,-0.501C0.188,-0.519 0.235,-0.528 0.29,-0.528C0.361,-0.528 0.417,-0.511 0.456,-0.479C0.495,-0.446 0.515,-0.397 0.515,-0.333L0.515,-0.141C0.515,-0.132 0.518,-0.124 0.525,-0.117C0.532,-0.11 0.54,-0.107 0.549,-0.107L0.572,-0.107L0.572,-0L0.487,-0ZM0.274,-0.085C0.301,-0.085 0.324,-0.092 0.341,-0.105C0.358,-0.117 0.367,-0.136 0.367,-0.159L0.367,-0.221L0.288,-0.221C0.259,-0.221 0.236,-0.216 0.221,-0.206C0.205,-0.195 0.197,-0.18 0.197,-0.16L0.197,-0.14C0.197,-0.122 0.204,-0.108 0.218,-0.099C0.231,-0.09 0.25,-0.085 0.274,-0.085Z" style="fill-rule:nonzero;"/>
                </g>
                <g transform="matrix(24,0,0,24,469.658,520.053)">
                    <path d="M0.071,-0.516L0.219,-0.516L0.219,-0.37L0.226,-0.37C0.251,-0.467 0.306,-0.516 0.391,-0.516L0.41,-0.516L0.41,-0.38L0.33,-0.38C0.295,-0.38 0.267,-0.37 0.248,-0.349C0.229,-0.328 0.219,-0.301 0.219,-0.268L0.219,-0L0.071,-0L0.071,-0.516Z" style="fill-rule:nonzero;"/>
                </g>
            </g>
            <g transform="matrix(0.97984,0,0,0.982928,117.315,76.3933)">
                <g transform="matrix(24,0,0,24,488.747,517.03)">
                    <path d="M0.059,-0.74L0.207,-0.74L0.207,-0.422L0.214,-0.422C0.228,-0.455 0.247,-0.481 0.272,-0.5C0.296,-0.519 0.328,-0.528 0.367,-0.528C0.426,-0.528 0.474,-0.506 0.509,-0.461C0.544,-0.416 0.561,-0.348 0.561,-0.258C0.561,-0.168 0.544,-0.1 0.509,-0.056C0.474,-0.011 0.426,0.012 0.367,0.012C0.328,0.012 0.296,0.003 0.272,-0.016C0.247,-0.035 0.228,-0.061 0.214,-0.094L0.207,-0.094L0.207,-0L0.059,-0L0.059,-0.74ZM0.303,-0.103C0.336,-0.103 0.361,-0.113 0.38,-0.134C0.398,-0.154 0.407,-0.182 0.407,-0.218L0.407,-0.298C0.407,-0.334 0.398,-0.362 0.38,-0.383C0.361,-0.403 0.336,-0.413 0.303,-0.413C0.275,-0.413 0.252,-0.406 0.234,-0.393C0.216,-0.38 0.207,-0.36 0.207,-0.334L0.207,-0.182C0.207,-0.156 0.216,-0.136 0.234,-0.123C0.252,-0.11 0.275,-0.103 0.303,-0.103Z" style="fill-rule:nonzero;"/>
                </g>
                <g transform="matrix(24,0,0,24,503.147,517.03)">
                    <path d="M0.487,-0C0.456,-0 0.432,-0.008 0.413,-0.024C0.394,-0.04 0.383,-0.062 0.38,-0.091L0.375,-0.091C0.366,-0.058 0.348,-0.032 0.32,-0.015C0.292,0.003 0.258,0.012 0.218,0.012C0.167,0.012 0.127,-0.002 0.097,-0.029C0.067,-0.056 0.052,-0.094 0.052,-0.142C0.052,-0.248 0.129,-0.301 0.284,-0.301L0.367,-0.301L0.367,-0.327C0.367,-0.358 0.36,-0.382 0.345,-0.397C0.33,-0.412 0.306,-0.42 0.273,-0.42C0.244,-0.42 0.219,-0.414 0.2,-0.403C0.18,-0.392 0.162,-0.376 0.147,-0.355L0.066,-0.427C0.084,-0.458 0.112,-0.482 0.15,-0.501C0.188,-0.519 0.235,-0.528 0.29,-0.528C0.361,-0.528 0.417,-0.511 0.456,-0.479C0.495,-0.446 0.515,-0.397 0.515,-0.333L0.515,-0.141C0.515,-0.132 0.518,-0.124 0.525,-0.117C0.532,-0.11 0.54,-0.107 0.549,-0.107L0.572,-0.107L0.572,-0L0.487,-0ZM0.274,-0.085C0.301,-0.085 0.324,-0.092 0.341,-0.105C0.358,-0.117 0.367,-0.136 0.367,-0.159L0.367,-0.221L0.288,-0.221C0.259,-0.221 0.236,-0.216 0.221,-0.206C0.205,-0.195 0.197,-0.18 0.197,-0.16L0.197,-0.14C0.197,-0.122 0.204,-0.108 0.218,-0.099C0.231,-0.09 0.25,-0.085 0.274,-0.085Z" style="fill-rule:nonzero;"/>
                </g>
                <g transform="matrix(24,0,0,24,517.547,517.03)">
                    <path d="M0.066,-0L0.066,-0.123L0.353,-0.401L0.076,-0.401L0.076,-0.516L0.524,-0.516L0.524,-0.393L0.237,-0.115L0.534,-0.115L0.534,-0L0.066,-0Z" style="fill-rule:nonzero;"/>
                </g>
            </g>
            <g transform="matrix(0.924313,0,0,0.927225,25.8951,129.362)">
                <path d="M465.405,308.228L474.686,314.971L470.045,321.358L477.554,323.798L474.009,334.709L466.5,332.269L466.5,340.165L455.028,340.165L455.028,332.269L447.519,334.709L443.973,323.798L451.482,321.358L446.842,314.971L456.123,308.228L460.764,314.615L465.405,308.228Z" style="fill:rgb(64,159,159);stroke:black;stroke-width:1.59px;"/>
            </g>
            <g transform="matrix(1.14177,0,0,1.14537,30.2411,55.6105)">
                <path d="M368.907,360.082L382.204,369.743L377.125,385.374L360.689,385.374L355.61,369.743L368.907,360.082Z" style="fill:rgb(255,127,0);stroke:black;stroke-width:1.29px;"/>
            </g>
            <g transform="matrix(0.588468,0,0,0.590323,293.246,348.78)">
                <path d="M268.836,285.13L276.148,307.634L299.81,307.634L280.667,321.542L287.979,344.046L268.836,330.138L249.693,344.046L257.005,321.542L237.862,307.634L261.524,307.634L268.836,285.13Z" style="fill:rgb(207,64,112);stroke:black;stroke-width:2.5px;"/>
            </g>
            <g transform="matrix(0.97984,0,0,0.982928,-6.28632,124.822)">
                <path d="M504.167,441.577L662.948,441.577L663.816,282.329L504.167,281.69L504.167,441.577Z" style="fill:none;stroke:rgb(6,0,0);stroke-width:3px;"/>
            </g>
            <g transform="matrix(0.97984,0,0,0.982928,-6.28632,124.822)">
                <path d="M663.816,441.577L742.572,361.634L742.572,202.265L663.816,281.69" style="fill:none;stroke:rgb(6,0,0);stroke-width:3px;stroke-linecap:butt;"/>
            </g>
            <g transform="matrix(0.97984,0,0,0.982928,-6.28632,124.822)">
                <path d="M504.167,281.69L583.991,202.265L742.572,202.265" style="fill:none;stroke:rgb(6,0,0);stroke-width:3px;stroke-linecap:butt;"/>
            </g>
            <g transform="matrix(4.46303,0,0,4.47709,-3329.18,-1151.61)">
                <g transform="matrix(24,0,0,24,916.883,356.685)">
                    <path d="M0.251,-0.356L0.04,-0.7L0.14,-0.7L0.28,-0.463L0.305,-0.416L0.329,-0.463L0.478,-0.7L0.57,-0.7L0.351,-0.363L0.58,-0L0.483,-0L0.326,-0.251L0.299,-0.301L0.273,-0.251L0.113,-0L0.02,-0L0.251,-0.356Z" style="fill-rule:nonzero;"/>
                </g>
                <g transform="matrix(24,0,0,24,931.283,356.685)">
                    <path d="M0.302,-0.097L0.313,-0.097L0.47,-0.5L0.557,-0.5L0.346,-0L0.258,-0L0.043,-0.5L0.135,-0.5L0.302,-0.097Z" style="fill-rule:nonzero;"/>
                </g>
                <g transform="matrix(24,0,0,24,945.683,356.685)">
                    <path d="M0.529,-0.063C0.517,-0.052 0.503,-0.042 0.487,-0.033C0.47,-0.024 0.452,-0.016 0.433,-0.009C0.414,-0.002 0.394,0.003 0.373,0.007C0.352,0.01 0.33,0.012 0.309,0.012C0.269,0.012 0.234,0.006 0.203,-0.007C0.172,-0.019 0.147,-0.037 0.126,-0.06C0.105,-0.083 0.09,-0.11 0.079,-0.142C0.068,-0.174 0.063,-0.21 0.063,-0.25C0.063,-0.292 0.069,-0.329 0.081,-0.362C0.092,-0.395 0.109,-0.422 0.131,-0.444C0.153,-0.466 0.18,-0.483 0.211,-0.495C0.242,-0.506 0.277,-0.512 0.316,-0.512C0.344,-0.512 0.372,-0.508 0.399,-0.501C0.426,-0.494 0.451,-0.48 0.472,-0.46C0.493,-0.439 0.509,-0.411 0.52,-0.376C0.531,-0.34 0.535,-0.294 0.532,-0.237L0.145,-0.237C0.145,-0.177 0.161,-0.132 0.194,-0.103C0.226,-0.073 0.269,-0.058 0.323,-0.058C0.341,-0.058 0.359,-0.06 0.377,-0.065C0.394,-0.069 0.411,-0.074 0.427,-0.08C0.443,-0.086 0.457,-0.093 0.47,-0.1C0.482,-0.107 0.491,-0.114 0.498,-0.12L0.529,-0.063ZM0.318,-0.446C0.296,-0.446 0.275,-0.444 0.256,-0.439C0.236,-0.434 0.219,-0.427 0.204,-0.416C0.189,-0.405 0.176,-0.39 0.167,-0.373C0.157,-0.355 0.151,-0.333 0.148,-0.307L0.459,-0.307C0.456,-0.351 0.442,-0.385 0.417,-0.41C0.392,-0.434 0.359,-0.446 0.318,-0.446Z" style="fill-rule:nonzero;"/>
                </g>
                <g transform="matrix(24,0,0,24,960.083,356.685)">
                    <path d="M0.439,-0.423C0.424,-0.428 0.407,-0.433 0.39,-0.437C0.372,-0.44 0.354,-0.442 0.337,-0.442C0.272,-0.442 0.223,-0.427 0.191,-0.396C0.159,-0.365 0.143,-0.317 0.143,-0.25C0.143,-0.221 0.148,-0.195 0.157,-0.172C0.166,-0.149 0.18,-0.129 0.197,-0.113C0.214,-0.097 0.235,-0.085 0.26,-0.076C0.284,-0.067 0.311,-0.063 0.34,-0.063C0.371,-0.063 0.402,-0.068 0.432,-0.079C0.461,-0.09 0.486,-0.104 0.506,-0.121L0.541,-0.063C0.532,-0.055 0.52,-0.047 0.506,-0.038C0.492,-0.029 0.476,-0.021 0.458,-0.014C0.439,-0.006 0.419,0 0.397,0.005C0.374,0.01 0.35,0.012 0.324,0.012C0.281,0.012 0.243,0.006 0.21,-0.007C0.177,-0.019 0.149,-0.037 0.127,-0.06C0.105,-0.083 0.088,-0.11 0.077,-0.143C0.066,-0.175 0.06,-0.211 0.06,-0.25C0.06,-0.292 0.066,-0.329 0.078,-0.362C0.089,-0.395 0.106,-0.422 0.128,-0.444C0.15,-0.466 0.177,-0.483 0.208,-0.495C0.239,-0.506 0.274,-0.512 0.313,-0.512C0.362,-0.512 0.403,-0.508 0.434,-0.499C0.464,-0.49 0.491,-0.481 0.512,-0.47L0.511,-0.467L0.511,-0.328L0.439,-0.328L0.439,-0.423Z" style="fill-rule:nonzero;"/>
                </g>
            </g>
            <g transform="matrix(0.97984,0,0,0.982928,-223.033,297.963)">
                <path d="M804.996,265.108L804.996,273.851" style="fill:none;stroke:rgb(6,0,0);stroke-width:1.5px;stroke-linecap:butt;"/>
            </g>
            <g transform="matrix(0.97984,0,0,0.982928,-275.045,297.963)">
                <path d="M804.996,265.108L804.996,273.851" style="fill:none;stroke:rgb(6,0,0);stroke-width:1.5px;stroke-linecap:butt;"/>
            </g>
            <g transform="matrix(0.97984,0,0,0.982928,-171.477,297.963)">
                <path d="M804.996,265.108L804.996,273.851" style="fill:none;stroke:rgb(6,0,0);stroke-width:1.5px;stroke-linecap:butt;"/>
            </g>
            <g transform="matrix(0.653099,-0.732746,0.730444,0.655157,-63.0893,961.562)">
                <path d="M804.996,265.108L804.996,273.851" style="fill:none;stroke:rgb(6,0,0);stroke-width:1.5px;stroke-linecap:butt;"/>
            </g>
            <g transform="matrix(0.653099,-0.732746,0.730444,0.655157,-37.0831,935.681)">
                <path d="M804.996,265.108L804.996,273.851" style="fill:none;stroke:rgb(6,0,0);stroke-width:1.5px;stroke-linecap:butt;"/>
            </g>
            <g transform="matrix(0.653099,-0.732746,0.730444,0.655157,-11.0768,909.593)">
                <path d="M804.996,265.108L804.996,273.851" style="fill:none;stroke:rgb(6,0,0);stroke-width:1.5px;stroke-linecap:butt;"/>
            </g>
            <g transform="matrix(5.96066e-17,0.976518,-0.97984,6.0187e-17,747.051,-305.497)">
                <path d="M804.996,265.108L804.996,273.851" style="fill:none;stroke:rgb(6,0,0);stroke-width:1.5px;stroke-linecap:butt;"/>
            </g>
            <g transform="matrix(5.96066e-17,0.976518,-0.97984,6.0187e-17,747.051,-357.674)">
                <path d="M804.996,265.108L804.996,273.851" style="fill:none;stroke:rgb(6,0,0);stroke-width:1.5px;stroke-linecap:butt;"/>
            </g>
            <g transform="matrix(5.96066e-17,0.976518,-0.97984,6.0187e-17,747.051,-253.321)">
                <path d="M804.996,265.108L804.996,273.851" style="fill:none;stroke:rgb(6,0,0);stroke-width:1.5px;stroke-linecap:butt;"/>
            </g>
        </g>
    </g>
</svg>
